<svg width="352" height="70" viewBox="0 0 352 70" fill="none" xmlns="http://www.w3.org/2000/svg">
<rect width="352" height="70" rx="10" fill="#24243A"/>
<path d="M91.5312 17.6328L87.7656 28H86.2266L90.5625 16.625H91.5547L91.5312 17.6328ZM94.6875 28L90.9141 17.6328L90.8906 16.625H91.8828L96.2344 28H94.6875ZM94.4922 23.7891V25.0234H88.1016V23.7891H94.4922ZM99.7188 26.6953L102.031 19.5469H103.508L100.469 28H99.5L99.7188 26.6953ZM97.7891 19.5469L100.172 26.7344L100.336 28H99.3672L96.3047 19.5469H97.7891ZM109.758 26.5547V22.2031C109.758 21.8698 109.69 21.5807 109.555 21.3359C109.424 21.0859 109.227 20.8932 108.961 20.7578C108.695 20.6224 108.367 20.5547 107.977 20.5547C107.612 20.5547 107.292 20.6172 107.016 20.7422C106.745 20.8672 106.531 21.0312 106.375 21.2344C106.224 21.4375 106.148 21.6562 106.148 21.8906H104.703C104.703 21.5885 104.781 21.2891 104.938 20.9922C105.094 20.6953 105.318 20.4271 105.609 20.1875C105.906 19.9427 106.26 19.75 106.672 19.6094C107.089 19.4635 107.552 19.3906 108.062 19.3906C108.677 19.3906 109.219 19.4948 109.688 19.7031C110.161 19.9115 110.531 20.2266 110.797 20.6484C111.068 21.0651 111.203 21.5885 111.203 22.2188V26.1562C111.203 26.4375 111.227 26.737 111.273 27.0547C111.326 27.3724 111.401 27.6458 111.5 27.875V28H109.992C109.919 27.8333 109.862 27.612 109.82 27.3359C109.779 27.0547 109.758 26.7943 109.758 26.5547ZM110.008 22.875L110.023 23.8906H108.562C108.151 23.8906 107.784 23.9245 107.461 23.9922C107.138 24.0547 106.867 24.151 106.648 24.2812C106.43 24.4115 106.263 24.5755 106.148 24.7734C106.034 24.9661 105.977 25.1927 105.977 25.4531C105.977 25.7188 106.036 25.9609 106.156 26.1797C106.276 26.3984 106.456 26.5729 106.695 26.7031C106.94 26.8281 107.24 26.8906 107.594 26.8906C108.036 26.8906 108.427 26.7969 108.766 26.6094C109.104 26.4219 109.372 26.1927 109.57 25.9219C109.773 25.651 109.883 25.388 109.898 25.1328L110.516 25.8281C110.479 26.0469 110.38 26.2891 110.219 26.5547C110.057 26.8203 109.841 27.0755 109.57 27.3203C109.305 27.5599 108.987 27.7604 108.617 27.9219C108.253 28.0781 107.841 28.1562 107.383 28.1562C106.81 28.1562 106.307 28.0443 105.875 27.8203C105.448 27.5964 105.115 27.2969 104.875 26.9219C104.641 26.5417 104.523 26.1172 104.523 25.6484C104.523 25.1953 104.612 24.7969 104.789 24.4531C104.966 24.1042 105.221 23.8151 105.555 23.5859C105.888 23.3516 106.289 23.1745 106.758 23.0547C107.227 22.9349 107.75 22.875 108.328 22.875H110.008ZM115.047 19.5469V28H113.594V19.5469H115.047ZM113.484 17.3047C113.484 17.0703 113.555 16.8724 113.695 16.7109C113.841 16.5495 114.055 16.4688 114.336 16.4688C114.612 16.4688 114.823 16.5495 114.969 16.7109C115.12 16.8724 115.195 17.0703 115.195 17.3047C115.195 17.5286 115.12 17.7214 114.969 17.8828C114.823 18.0391 114.612 18.1172 114.336 18.1172C114.055 18.1172 113.841 18.0391 113.695 17.8828C113.555 17.7214 113.484 17.5286 113.484 17.3047ZM118.938 16V28H117.484V16H118.938ZM126.242 26.5547V22.2031C126.242 21.8698 126.174 21.5807 126.039 21.3359C125.909 21.0859 125.711 20.8932 125.445 20.7578C125.18 20.6224 124.852 20.5547 124.461 20.5547C124.096 20.5547 123.776 20.6172 123.5 20.7422C123.229 20.8672 123.016 21.0312 122.859 21.2344C122.708 21.4375 122.633 21.6562 122.633 21.8906H121.188C121.188 21.5885 121.266 21.2891 121.422 20.9922C121.578 20.6953 121.802 20.4271 122.094 20.1875C122.391 19.9427 122.745 19.75 123.156 19.6094C123.573 19.4635 124.036 19.3906 124.547 19.3906C125.161 19.3906 125.703 19.4948 126.172 19.7031C126.646 19.9115 127.016 20.2266 127.281 20.6484C127.552 21.0651 127.688 21.5885 127.688 22.2188V26.1562C127.688 26.4375 127.711 26.737 127.758 27.0547C127.81 27.3724 127.885 27.6458 127.984 27.875V28H126.477C126.404 27.8333 126.346 27.612 126.305 27.3359C126.263 27.0547 126.242 26.7943 126.242 26.5547ZM126.492 22.875L126.508 23.8906H125.047C124.635 23.8906 124.268 23.9245 123.945 23.9922C123.622 24.0547 123.352 24.151 123.133 24.2812C122.914 24.4115 122.747 24.5755 122.633 24.7734C122.518 24.9661 122.461 25.1927 122.461 25.4531C122.461 25.7188 122.521 25.9609 122.641 26.1797C122.76 26.3984 122.94 26.5729 123.18 26.7031C123.424 26.8281 123.724 26.8906 124.078 26.8906C124.521 26.8906 124.911 26.7969 125.25 26.6094C125.589 26.4219 125.857 26.1927 126.055 25.9219C126.258 25.651 126.367 25.388 126.383 25.1328L127 25.8281C126.964 26.0469 126.865 26.2891 126.703 26.5547C126.542 26.8203 126.326 27.0755 126.055 27.3203C125.789 27.5599 125.471 27.7604 125.102 27.9219C124.737 28.0781 124.326 28.1562 123.867 28.1562C123.294 28.1562 122.792 28.0443 122.359 27.8203C121.932 27.5964 121.599 27.2969 121.359 26.9219C121.125 26.5417 121.008 26.1172 121.008 25.6484C121.008 25.1953 121.096 24.7969 121.273 24.4531C121.451 24.1042 121.706 23.8151 122.039 23.5859C122.372 23.3516 122.773 23.1745 123.242 23.0547C123.711 22.9349 124.234 22.875 124.812 22.875H126.492ZM129.953 16H131.406V26.3594L131.281 28H129.953V16ZM137.117 23.7031V23.8672C137.117 24.4818 137.044 25.0521 136.898 25.5781C136.753 26.099 136.539 26.5521 136.258 26.9375C135.977 27.3229 135.633 27.6224 135.227 27.8359C134.82 28.0495 134.354 28.1562 133.828 28.1562C133.292 28.1562 132.82 28.0651 132.414 27.8828C132.013 27.6953 131.674 27.4271 131.398 27.0781C131.122 26.7292 130.901 26.3073 130.734 25.8125C130.573 25.3177 130.461 24.7604 130.398 24.1406V23.4219C130.461 22.7969 130.573 22.237 130.734 21.7422C130.901 21.2474 131.122 20.8255 131.398 20.4766C131.674 20.1224 132.013 19.8542 132.414 19.6719C132.815 19.4844 133.281 19.3906 133.812 19.3906C134.344 19.3906 134.815 19.4948 135.227 19.7031C135.638 19.9062 135.982 20.1979 136.258 20.5781C136.539 20.9583 136.753 21.4141 136.898 21.9453C137.044 22.4714 137.117 23.0573 137.117 23.7031ZM135.664 23.8672V23.7031C135.664 23.2812 135.625 22.8854 135.547 22.5156C135.469 22.1406 135.344 21.8125 135.172 21.5312C135 21.2448 134.773 21.0208 134.492 20.8594C134.211 20.6927 133.865 20.6094 133.453 20.6094C133.089 20.6094 132.771 20.6719 132.5 20.7969C132.234 20.9219 132.008 21.0911 131.82 21.3047C131.633 21.513 131.479 21.7526 131.359 22.0234C131.245 22.2891 131.159 22.5651 131.102 22.8516V24.7344C131.185 25.099 131.32 25.4505 131.508 25.7891C131.701 26.1224 131.956 26.3958 132.273 26.6094C132.596 26.8229 132.995 26.9297 133.469 26.9297C133.859 26.9297 134.193 26.8516 134.469 26.6953C134.75 26.5339 134.977 26.3125 135.148 26.0312C135.326 25.75 135.456 25.4245 135.539 25.0547C135.622 24.6849 135.664 24.2891 135.664 23.8672ZM140.516 16V28H139.062V16H140.516ZM146.344 28.1562C145.755 28.1562 145.221 28.0573 144.742 27.8594C144.268 27.6562 143.859 27.3724 143.516 27.0078C143.177 26.6432 142.917 26.2109 142.734 25.7109C142.552 25.2109 142.461 24.6641 142.461 24.0703V23.7422C142.461 23.0547 142.562 22.4427 142.766 21.9062C142.969 21.3646 143.245 20.9062 143.594 20.5312C143.943 20.1562 144.339 19.8724 144.781 19.6797C145.224 19.487 145.682 19.3906 146.156 19.3906C146.76 19.3906 147.281 19.4948 147.719 19.7031C148.161 19.9115 148.523 20.2031 148.805 20.5781C149.086 20.9479 149.294 21.3854 149.43 21.8906C149.565 22.3906 149.633 22.9375 149.633 23.5312V24.1797H143.32V23H148.188V22.8906C148.167 22.5156 148.089 22.151 147.953 21.7969C147.823 21.4427 147.615 21.151 147.328 20.9219C147.042 20.6927 146.651 20.5781 146.156 20.5781C145.828 20.5781 145.526 20.6484 145.25 20.7891C144.974 20.9245 144.737 21.1276 144.539 21.3984C144.341 21.6693 144.188 22 144.078 22.3906C143.969 22.7812 143.914 23.2318 143.914 23.7422V24.0703C143.914 24.4714 143.969 24.849 144.078 25.2031C144.193 25.5521 144.357 25.8594 144.57 26.125C144.789 26.3906 145.052 26.599 145.359 26.75C145.672 26.901 146.026 26.9766 146.422 26.9766C146.932 26.9766 147.365 26.8724 147.719 26.6641C148.073 26.4557 148.383 26.1771 148.648 25.8281L149.523 26.5234C149.341 26.7995 149.109 27.0625 148.828 27.3125C148.547 27.5625 148.201 27.7656 147.789 27.9219C147.383 28.0781 146.901 28.1562 146.344 28.1562ZM156.859 19.5469V28H155.406V19.5469H156.859ZM155.297 17.3047C155.297 17.0703 155.367 16.8724 155.508 16.7109C155.654 16.5495 155.867 16.4688 156.148 16.4688C156.424 16.4688 156.635 16.5495 156.781 16.7109C156.932 16.8724 157.008 17.0703 157.008 17.3047C157.008 17.5286 156.932 17.7214 156.781 17.8828C156.635 18.0391 156.424 18.1172 156.148 18.1172C155.867 18.1172 155.654 18.0391 155.508 17.8828C155.367 17.7214 155.297 17.5286 155.297 17.3047ZM160.625 21.3516V28H159.18V19.5469H160.547L160.625 21.3516ZM160.281 23.4531L159.68 23.4297C159.685 22.8516 159.771 22.3177 159.938 21.8281C160.104 21.3333 160.339 20.9036 160.641 20.5391C160.943 20.1745 161.302 19.8932 161.719 19.6953C162.141 19.4922 162.607 19.3906 163.117 19.3906C163.534 19.3906 163.909 19.4479 164.242 19.5625C164.576 19.6719 164.859 19.849 165.094 20.0938C165.333 20.3385 165.516 20.6562 165.641 21.0469C165.766 21.4323 165.828 21.9036 165.828 22.4609V28H164.375V22.4453C164.375 22.0026 164.31 21.6484 164.18 21.3828C164.049 21.112 163.859 20.9167 163.609 20.7969C163.359 20.6719 163.052 20.6094 162.688 20.6094C162.328 20.6094 162 20.6849 161.703 20.8359C161.411 20.987 161.159 21.1953 160.945 21.4609C160.737 21.7266 160.573 22.0312 160.453 22.375C160.339 22.7135 160.281 23.0729 160.281 23.4531ZM175.531 19.5469V20.6562H170.961V19.5469H175.531ZM172.508 17.4922H173.953V25.9062C173.953 26.1927 173.997 26.4089 174.086 26.5547C174.174 26.7005 174.289 26.7969 174.43 26.8438C174.57 26.8906 174.721 26.9141 174.883 26.9141C175.003 26.9141 175.128 26.9036 175.258 26.8828C175.393 26.8568 175.495 26.8359 175.562 26.8203L175.57 28C175.456 28.0365 175.305 28.0703 175.117 28.1016C174.935 28.138 174.714 28.1562 174.453 28.1562C174.099 28.1562 173.773 28.0859 173.477 27.9453C173.18 27.8047 172.943 27.5703 172.766 27.2422C172.594 26.9089 172.508 26.4609 172.508 25.8984V17.4922ZM178.672 16V28H177.227V16H178.672ZM178.328 23.4531L177.727 23.4297C177.732 22.8516 177.818 22.3177 177.984 21.8281C178.151 21.3333 178.385 20.9036 178.688 20.5391C178.99 20.1745 179.349 19.8932 179.766 19.6953C180.188 19.4922 180.654 19.3906 181.164 19.3906C181.581 19.3906 181.956 19.4479 182.289 19.5625C182.622 19.6719 182.906 19.849 183.141 20.0938C183.38 20.3385 183.562 20.6562 183.688 21.0469C183.812 21.4323 183.875 21.9036 183.875 22.4609V28H182.422V22.4453C182.422 22.0026 182.357 21.6484 182.227 21.3828C182.096 21.112 181.906 20.9167 181.656 20.7969C181.406 20.6719 181.099 20.6094 180.734 20.6094C180.375 20.6094 180.047 20.6849 179.75 20.8359C179.458 20.987 179.206 21.1953 178.992 21.4609C178.784 21.7266 178.62 22.0312 178.5 22.375C178.385 22.7135 178.328 23.0729 178.328 23.4531ZM189.547 28.1562C188.958 28.1562 188.424 28.0573 187.945 27.8594C187.471 27.6562 187.062 27.3724 186.719 27.0078C186.38 26.6432 186.12 26.2109 185.938 25.7109C185.755 25.2109 185.664 24.6641 185.664 24.0703V23.7422C185.664 23.0547 185.766 22.4427 185.969 21.9062C186.172 21.3646 186.448 20.9062 186.797 20.5312C187.146 20.1562 187.542 19.8724 187.984 19.6797C188.427 19.487 188.885 19.3906 189.359 19.3906C189.964 19.3906 190.484 19.4948 190.922 19.7031C191.365 19.9115 191.727 20.2031 192.008 20.5781C192.289 20.9479 192.497 21.3854 192.633 21.8906C192.768 22.3906 192.836 22.9375 192.836 23.5312V24.1797H186.523V23H191.391V22.8906C191.37 22.5156 191.292 22.151 191.156 21.7969C191.026 21.4427 190.818 21.151 190.531 20.9219C190.245 20.6927 189.854 20.5781 189.359 20.5781C189.031 20.5781 188.729 20.6484 188.453 20.7891C188.177 20.9245 187.94 21.1276 187.742 21.3984C187.544 21.6693 187.391 22 187.281 22.3906C187.172 22.7812 187.117 23.2318 187.117 23.7422V24.0703C187.117 24.4714 187.172 24.849 187.281 25.2031C187.396 25.5521 187.56 25.8594 187.773 26.125C187.992 26.3906 188.255 26.599 188.562 26.75C188.875 26.901 189.229 26.9766 189.625 26.9766C190.135 26.9766 190.568 26.8724 190.922 26.6641C191.276 26.4557 191.586 26.1771 191.852 25.8281L192.727 26.5234C192.544 26.7995 192.312 27.0625 192.031 27.3125C191.75 27.5625 191.404 27.7656 190.992 27.9219C190.586 28.0781 190.104 28.1562 189.547 28.1562Z" fill="white"/>
<path d="M99.4348 46.1765V51.9281C99.2406 52.2159 98.9312 52.5396 98.5068 52.8993C98.0823 53.2518 97.496 53.5612 96.7479 53.8273C96.0069 54.0863 95.0501 54.2158 93.8774 54.2158C92.9206 54.2158 92.0394 54.0504 91.2336 53.7194C90.4351 53.3813 89.7409 52.8921 89.151 52.2519C88.5683 51.6044 88.115 50.8202 87.7913 49.8994C87.4748 48.9714 87.3165 47.9211 87.3165 46.7484V45.5291C87.3165 44.3564 87.4532 43.3097 87.7266 42.3889C88.0071 41.468 88.4172 40.6875 88.9567 40.0472C89.4963 39.3998 90.1581 38.9106 90.9423 38.5796C91.7264 38.2415 92.6257 38.0725 93.64 38.0725C94.8414 38.0725 95.845 38.2811 96.6507 38.6983C97.4637 39.1084 98.0967 39.6767 98.55 40.4033C99.0104 41.1299 99.3053 41.9572 99.4348 42.8853H97.3521C97.2586 42.3169 97.0716 41.799 96.791 41.3313C96.5176 40.8637 96.1256 40.4896 95.6148 40.2091C95.104 39.9213 94.4458 39.7774 93.64 39.7774C92.9134 39.7774 92.284 39.9105 91.7516 40.1767C91.2193 40.4429 90.7804 40.8242 90.4351 41.3206C90.0898 41.8169 89.8308 42.4176 89.6582 43.1227C89.4927 43.8277 89.41 44.6226 89.41 45.5075V46.7484C89.41 47.6549 89.5143 48.4642 89.7229 49.1764C89.9387 49.8886 90.2445 50.4965 90.6401 51.0001C91.0358 51.4965 91.507 51.8742 92.0538 52.1332C92.6077 52.3921 93.2192 52.5216 93.8882 52.5216C94.6292 52.5216 95.2299 52.4605 95.6903 52.3382C96.1507 52.2087 96.5104 52.0576 96.7694 51.885C97.0284 51.7051 97.2263 51.5361 97.3629 51.3778V47.8599H93.7264V46.1765H99.4348ZM104.755 42.3241V54H102.748V42.3241H104.755ZM102.597 39.2271C102.597 38.9034 102.694 38.63 102.888 38.407C103.089 38.184 103.384 38.0725 103.773 38.0725C104.154 38.0725 104.445 38.184 104.647 38.407C104.856 38.63 104.96 38.9034 104.96 39.2271C104.96 39.5364 104.856 39.8026 104.647 40.0256C104.445 40.2415 104.154 40.3494 103.773 40.3494C103.384 40.3494 103.089 40.2415 102.888 40.0256C102.694 39.8026 102.597 39.5364 102.597 39.2271ZM112.848 42.3241V43.8564H106.535V42.3241H112.848ZM108.672 39.4861H110.668V51.108C110.668 51.5037 110.729 51.8022 110.852 52.0037C110.974 52.2051 111.132 52.3382 111.327 52.4029C111.521 52.4677 111.729 52.5 111.952 52.5C112.118 52.5 112.291 52.4857 112.47 52.4569C112.657 52.4209 112.798 52.3921 112.891 52.3706L112.902 54C112.744 54.0504 112.535 54.0971 112.276 54.1403C112.024 54.1906 111.719 54.2158 111.359 54.2158C110.87 54.2158 110.42 54.1187 110.01 53.9245C109.6 53.7302 109.273 53.4065 109.028 52.9533C108.791 52.4929 108.672 51.8742 108.672 51.0972V39.4861ZM117.186 37.425V54H115.19V37.425H117.186ZM116.711 47.7196L115.88 47.6873C115.888 46.8887 116.006 46.1513 116.236 45.4751C116.467 44.7917 116.79 44.1982 117.208 43.6946C117.625 43.191 118.121 42.8025 118.697 42.5292C119.279 42.2486 119.923 42.1083 120.628 42.1083C121.204 42.1083 121.722 42.1874 122.182 42.3457C122.643 42.4968 123.035 42.7414 123.358 43.0795C123.689 43.4176 123.941 43.8564 124.114 44.396C124.287 44.9284 124.373 45.5794 124.373 46.3492V54H122.366V46.3276C122.366 45.7161 122.276 45.2269 122.096 44.86C121.916 44.4859 121.654 44.2161 121.308 44.0507C120.963 43.878 120.538 43.7917 120.035 43.7917C119.538 43.7917 119.085 43.896 118.675 44.1046C118.272 44.3133 117.923 44.601 117.628 44.9679C117.341 45.3348 117.114 45.7557 116.949 46.2305C116.79 46.6981 116.711 47.1945 116.711 47.7196ZM134.506 51.3022V42.3241H136.513V54H134.603L134.506 51.3022ZM134.883 48.8419L135.714 48.8203C135.714 49.5973 135.631 50.3167 135.466 50.9785C135.308 51.6332 135.049 52.2015 134.689 52.6835C134.329 53.1655 133.858 53.5432 133.275 53.8166C132.693 54.0827 131.984 54.2158 131.15 54.2158C130.581 54.2158 130.06 54.1331 129.585 53.9676C129.117 53.8022 128.714 53.5468 128.376 53.2015C128.038 52.8562 127.776 52.4065 127.589 51.8526C127.409 51.2986 127.319 50.6332 127.319 49.8562V42.3241H129.315V49.8778C129.315 50.403 129.373 50.8382 129.488 51.1835C129.61 51.5217 129.772 51.7914 129.973 51.9929C130.182 52.1871 130.412 52.3238 130.664 52.4029C130.923 52.4821 131.189 52.5216 131.463 52.5216C132.311 52.5216 132.984 52.3598 133.48 52.036C133.977 51.7051 134.333 51.2627 134.549 50.7087C134.772 50.1476 134.883 49.5253 134.883 48.8419ZM139.545 37.425H141.552V51.7339L141.379 54H139.545V37.425ZM149.44 48.0649V48.2916C149.44 49.1404 149.34 49.9282 149.138 50.6548C148.937 51.3742 148.642 52.0001 148.253 52.5324C147.865 53.0648 147.39 53.4784 146.829 53.7734C146.268 54.0683 145.624 54.2158 144.897 54.2158C144.156 54.2158 143.505 54.0899 142.944 53.8381C142.39 53.5792 141.923 53.2087 141.541 52.7267C141.16 52.2447 140.854 51.6619 140.624 50.9785C140.401 50.2951 140.246 49.5253 140.16 48.6692V47.6765C140.246 46.8132 140.401 46.0398 140.624 45.3564C140.854 44.673 141.16 44.0903 141.541 43.6083C141.923 43.1191 142.39 42.7486 142.944 42.4968C143.498 42.2378 144.142 42.1083 144.876 42.1083C145.61 42.1083 146.261 42.2522 146.829 42.5399C147.397 42.8205 147.872 43.2234 148.253 43.7485C148.642 44.2737 148.937 44.9032 149.138 45.637C149.34 46.3636 149.44 47.1729 149.44 48.0649ZM147.433 48.2916V48.0649C147.433 47.4822 147.379 46.9355 147.271 46.4247C147.163 45.9067 146.991 45.4535 146.753 45.065C146.516 44.6694 146.203 44.36 145.815 44.137C145.426 43.9068 144.948 43.7917 144.379 43.7917C143.876 43.7917 143.437 43.878 143.063 44.0507C142.696 44.2233 142.383 44.4571 142.124 44.7521C141.865 45.0399 141.653 45.3708 141.487 45.7449C141.329 46.1118 141.21 46.4931 141.131 46.8887V49.4894C141.246 49.9929 141.433 50.4785 141.692 50.9461C141.959 51.4066 142.311 51.7842 142.75 52.0792C143.196 52.3742 143.746 52.5216 144.401 52.5216C144.941 52.5216 145.401 52.4137 145.782 52.1979C146.171 51.9749 146.484 51.6691 146.721 51.2807C146.966 50.8922 147.145 50.4426 147.261 49.9318C147.376 49.421 147.433 48.8743 147.433 48.2916ZM157.749 38.2883H162.951C164.131 38.2883 165.127 38.4681 165.94 38.8278C166.76 39.1875 167.382 39.7199 167.807 40.4249C168.238 41.1227 168.454 41.9824 168.454 43.004C168.454 43.7234 168.307 44.3816 168.012 44.9787C167.724 45.5686 167.307 46.0722 166.76 46.4895C166.22 46.8995 165.573 47.2053 164.818 47.4067L164.235 47.6333H159.347L159.325 45.9391H163.015C163.764 45.9391 164.386 45.8096 164.882 45.5506C165.379 45.2845 165.753 44.9284 166.005 44.4823C166.256 44.0363 166.382 43.5435 166.382 43.004C166.382 42.3997 166.264 41.8709 166.026 41.4177C165.789 40.9645 165.415 40.6155 164.904 40.3709C164.4 40.1192 163.749 39.9933 162.951 39.9933H159.832V54H157.749V38.2883ZM166.933 54L163.113 46.8779L165.282 46.8671L169.156 53.8705V54H166.933ZM175.911 54.2158C175.098 54.2158 174.36 54.0791 173.699 53.8058C173.044 53.5252 172.479 53.1331 172.004 52.6295C171.537 52.126 171.177 51.5289 170.925 50.8382C170.674 50.1476 170.548 49.3922 170.548 48.5721V48.1189C170.548 47.1693 170.688 46.324 170.968 45.583C171.249 44.8348 171.63 44.2018 172.112 43.6838C172.594 43.1658 173.141 42.7737 173.753 42.5076C174.364 42.2414 174.997 42.1083 175.652 42.1083C176.486 42.1083 177.206 42.2522 177.81 42.5399C178.421 42.8277 178.921 43.2306 179.31 43.7485C179.698 44.2593 179.986 44.8636 180.173 45.5614C180.36 46.2521 180.454 47.0074 180.454 47.8275V48.7232H171.735V47.0937H178.457V46.9427C178.429 46.4247 178.321 45.9211 178.134 45.4319C177.954 44.9427 177.666 44.5399 177.27 44.2233C176.875 43.9068 176.335 43.7485 175.652 43.7485C175.199 43.7485 174.781 43.8457 174.4 44.0399C174.019 44.2269 173.691 44.5075 173.418 44.8816C173.145 45.2557 172.932 45.7125 172.781 46.2521C172.63 46.7916 172.555 47.4139 172.555 48.1189V48.5721C172.555 49.1261 172.63 49.6476 172.781 50.1368C172.94 50.6188 173.166 51.0433 173.461 51.4102C173.763 51.7771 174.127 52.0648 174.551 52.2734C174.983 52.4821 175.472 52.5864 176.019 52.5864C176.724 52.5864 177.321 52.4425 177.81 52.1547C178.299 51.867 178.727 51.4821 179.094 51.0001L180.303 51.9605C180.051 52.3418 179.731 52.7051 179.342 53.0504C178.954 53.3957 178.475 53.6763 177.907 53.8921C177.346 54.1079 176.681 54.2158 175.911 54.2158ZM184.954 37.425V54H182.946V37.425H184.954ZM193.004 54.2158C192.191 54.2158 191.453 54.0791 190.792 53.8058C190.137 53.5252 189.572 53.1331 189.097 52.6295C188.63 52.126 188.27 51.5289 188.018 50.8382C187.766 50.1476 187.641 49.3922 187.641 48.5721V48.1189C187.641 47.1693 187.781 46.324 188.061 45.583C188.342 44.8348 188.723 44.2018 189.205 43.6838C189.687 43.1658 190.234 42.7737 190.846 42.5076C191.457 42.2414 192.09 42.1083 192.745 42.1083C193.579 42.1083 194.299 42.2522 194.903 42.5399C195.514 42.8277 196.014 43.2306 196.403 43.7485C196.791 44.2593 197.079 44.8636 197.266 45.5614C197.453 46.2521 197.547 47.0074 197.547 47.8275V48.7232H188.828V47.0937H195.55V46.9427C195.522 46.4247 195.414 45.9211 195.227 45.4319C195.047 44.9427 194.759 44.5399 194.363 44.2233C193.968 43.9068 193.428 43.7485 192.745 43.7485C192.292 43.7485 191.874 43.8457 191.493 44.0399C191.112 44.2269 190.784 44.5075 190.511 44.8816C190.238 45.2557 190.025 45.7125 189.874 46.2521C189.723 46.7916 189.648 47.4139 189.648 48.1189V48.5721C189.648 49.1261 189.723 49.6476 189.874 50.1368C190.033 50.6188 190.259 51.0433 190.554 51.4102C190.856 51.7771 191.22 52.0648 191.644 52.2734C192.076 52.4821 192.565 52.5864 193.112 52.5864C193.817 52.5864 194.414 52.4425 194.903 52.1547C195.392 51.867 195.82 51.4821 196.187 51.0001L197.396 51.9605C197.144 52.3418 196.824 52.7051 196.435 53.0504C196.047 53.3957 195.568 53.6763 195 53.8921C194.439 54.1079 193.773 54.2158 193.004 54.2158ZM206.762 52.0037V45.9931C206.762 45.5326 206.669 45.1334 206.482 44.7953C206.302 44.45 206.028 44.1838 205.662 43.9967C205.295 43.8097 204.841 43.7162 204.302 43.7162C203.798 43.7162 203.356 43.8025 202.975 43.9751C202.601 44.1478 202.306 44.3744 202.09 44.655C201.881 44.9355 201.777 45.2377 201.777 45.5614H199.78C199.78 45.1442 199.888 44.7305 200.104 44.3205C200.32 43.9104 200.629 43.5399 201.032 43.209C201.442 42.8709 201.931 42.6047 202.5 42.4104C203.075 42.209 203.716 42.1083 204.421 42.1083C205.27 42.1083 206.018 42.2522 206.665 42.5399C207.32 42.8277 207.831 43.2629 208.197 43.8457C208.572 44.4212 208.759 45.1442 208.759 46.0146V51.4533C208.759 51.8418 208.791 52.2555 208.856 52.6943C208.928 53.1331 209.032 53.5108 209.169 53.8273V54H207.086C206.985 53.7698 206.906 53.464 206.849 53.0828C206.791 52.6943 206.762 52.3346 206.762 52.0037ZM207.108 46.9211L207.129 48.3239H205.111C204.543 48.3239 204.036 48.3707 203.59 48.4642C203.144 48.5505 202.77 48.6836 202.467 48.8635C202.165 49.0433 201.935 49.2699 201.777 49.5433C201.619 49.8095 201.539 50.1224 201.539 50.4821C201.539 50.849 201.622 51.1835 201.788 51.4857C201.953 51.7878 202.201 52.0288 202.532 52.2087C202.87 52.3813 203.284 52.4677 203.773 52.4677C204.385 52.4677 204.924 52.3382 205.392 52.0792C205.859 51.8202 206.23 51.5037 206.503 51.1296C206.784 50.7555 206.935 50.3922 206.956 50.0397L207.809 51.0001C207.759 51.3022 207.622 51.6368 207.399 52.0037C207.176 52.3706 206.877 52.7231 206.503 53.0612C206.136 53.3921 205.698 53.6691 205.187 53.8921C204.683 54.1079 204.115 54.2158 203.482 54.2158C202.69 54.2158 201.996 54.0611 201.399 53.7518C200.809 53.4425 200.349 53.0288 200.018 52.5108C199.694 51.9857 199.532 51.3994 199.532 50.7519C199.532 50.126 199.655 49.5757 199.899 49.1009C200.144 48.6189 200.496 48.2196 200.957 47.9031C201.417 47.5793 201.971 47.3347 202.619 47.1693C203.266 47.0038 203.989 46.9211 204.788 46.9211H207.108ZM218.697 50.903C218.697 50.6152 218.632 50.349 218.503 50.1044C218.381 49.8527 218.125 49.626 217.737 49.4246C217.355 49.216 216.78 49.0361 216.01 48.8851C215.363 48.7484 214.776 48.5865 214.251 48.3995C213.733 48.2124 213.291 47.9858 212.924 47.7196C212.564 47.4535 212.287 47.1405 212.093 46.7808C211.899 46.4211 211.802 46.0003 211.802 45.5183C211.802 45.0578 211.902 44.6226 212.104 44.2125C212.312 43.8025 212.604 43.4392 212.978 43.1227C213.359 42.8061 213.816 42.5579 214.348 42.3781C214.881 42.1982 215.474 42.1083 216.129 42.1083C217.064 42.1083 217.863 42.2738 218.524 42.6047C219.186 42.9356 219.693 43.378 220.046 43.932C220.398 44.4787 220.575 45.0866 220.575 45.7557H218.578C218.578 45.4319 218.481 45.119 218.287 44.8168C218.1 44.5075 217.823 44.2521 217.456 44.0507C217.096 43.8493 216.654 43.7485 216.129 43.7485C215.575 43.7485 215.125 43.8349 214.78 44.0075C214.442 44.173 214.194 44.3852 214.035 44.6442C213.884 44.9032 213.809 45.1765 213.809 45.4643C213.809 45.6801 213.845 45.8744 213.917 46.047C213.996 46.2125 214.133 46.3672 214.327 46.511C214.521 46.6477 214.794 46.7772 215.147 46.8995C215.499 47.0218 215.949 47.1441 216.496 47.2664C217.453 47.4822 218.24 47.7412 218.859 48.0434C219.478 48.3455 219.938 48.716 220.24 49.1548C220.542 49.5937 220.693 50.126 220.693 50.7519C220.693 51.2627 220.586 51.7303 220.37 52.1547C220.161 52.5792 219.855 52.9461 219.452 53.2554C219.057 53.5576 218.582 53.795 218.028 53.9676C217.481 54.1331 216.866 54.2158 216.183 54.2158C215.154 54.2158 214.284 54.0324 213.571 53.6655C212.859 53.2986 212.32 52.8238 211.953 52.2411C211.586 51.6583 211.402 51.0433 211.402 50.3958H213.41C213.438 50.9425 213.597 51.3778 213.884 51.7015C214.172 52.0181 214.525 52.2447 214.942 52.3813C215.359 52.5108 215.773 52.5756 216.183 52.5756C216.73 52.5756 217.186 52.5036 217.553 52.3598C217.927 52.2159 218.212 52.0181 218.406 51.7663C218.6 51.5145 218.697 51.2267 218.697 50.903ZM228.161 54.2158C227.348 54.2158 226.611 54.0791 225.949 53.8058C225.294 53.5252 224.729 53.1331 224.254 52.6295C223.787 52.126 223.427 51.5289 223.175 50.8382C222.924 50.1476 222.798 49.3922 222.798 48.5721V48.1189C222.798 47.1693 222.938 46.324 223.219 45.583C223.499 44.8348 223.88 44.2018 224.362 43.6838C224.844 43.1658 225.391 42.7737 226.003 42.5076C226.614 42.2414 227.247 42.1083 227.902 42.1083C228.736 42.1083 229.456 42.2522 230.06 42.5399C230.672 42.8277 231.172 43.2306 231.56 43.7485C231.948 44.2593 232.236 44.8636 232.423 45.5614C232.61 46.2521 232.704 47.0074 232.704 47.8275V48.7232H223.985V47.0937H230.708V46.9427C230.679 46.4247 230.571 45.9211 230.384 45.4319C230.204 44.9427 229.916 44.5399 229.521 44.2233C229.125 43.9068 228.585 43.7485 227.902 43.7485C227.449 43.7485 227.031 43.8457 226.65 44.0399C226.269 44.2269 225.941 44.5075 225.668 44.8816C225.395 45.2557 225.183 45.7125 225.031 46.2521C224.88 46.7916 224.805 47.4139 224.805 48.1189V48.5721C224.805 49.1261 224.88 49.6476 225.031 50.1368C225.19 50.6188 225.416 51.0433 225.711 51.4102C226.013 51.7771 226.377 52.0648 226.801 52.2734C227.233 52.4821 227.722 52.5864 228.269 52.5864C228.974 52.5864 229.571 52.4425 230.06 52.1547C230.549 51.867 230.977 51.4821 231.344 51.0001L232.553 51.9605C232.301 52.3418 231.981 52.7051 231.592 53.0504C231.204 53.3957 230.726 53.6763 230.157 53.8921C229.596 54.1079 228.931 54.2158 228.161 54.2158ZM241.833 50.903C241.833 50.6152 241.768 50.349 241.639 50.1044C241.517 49.8527 241.261 49.626 240.873 49.4246C240.491 49.216 239.916 49.0361 239.146 48.8851C238.499 48.7484 237.912 48.5865 237.387 48.3995C236.869 48.2124 236.427 47.9858 236.06 47.7196C235.7 47.4535 235.423 47.1405 235.229 46.7808C235.035 46.4211 234.938 46.0003 234.938 45.5183C234.938 45.0578 235.038 44.6226 235.24 44.2125C235.448 43.8025 235.74 43.4392 236.114 43.1227C236.495 42.8061 236.952 42.5579 237.484 42.3781C238.017 42.1982 238.61 42.1083 239.265 42.1083C240.2 42.1083 240.999 42.2738 241.66 42.6047C242.322 42.9356 242.829 43.378 243.182 43.932C243.534 44.4787 243.711 45.0866 243.711 45.7557H241.714C241.714 45.4319 241.617 45.119 241.423 44.8168C241.236 44.5075 240.959 44.2521 240.592 44.0507C240.232 43.8493 239.79 43.7485 239.265 43.7485C238.711 43.7485 238.261 43.8349 237.916 44.0075C237.578 44.173 237.33 44.3852 237.171 44.6442C237.02 44.9032 236.945 45.1765 236.945 45.4643C236.945 45.6801 236.981 45.8744 237.053 46.047C237.132 46.2125 237.268 46.3672 237.463 46.511C237.657 46.6477 237.93 46.7772 238.283 46.8995C238.635 47.0218 239.085 47.1441 239.632 47.2664C240.588 47.4822 241.376 47.7412 241.995 48.0434C242.614 48.3455 243.074 48.716 243.376 49.1548C243.678 49.5937 243.829 50.126 243.829 50.7519C243.829 51.2627 243.721 51.7303 243.506 52.1547C243.297 52.5792 242.991 52.9461 242.588 53.2554C242.193 53.5576 241.718 53.795 241.164 53.9676C240.617 54.1331 240.002 54.2158 239.319 54.2158C238.29 54.2158 237.42 54.0324 236.707 53.6655C235.995 53.2986 235.456 52.8238 235.089 52.2411C234.722 51.6583 234.538 51.0433 234.538 50.3958H236.545C236.574 50.9425 236.733 51.3778 237.02 51.7015C237.308 52.0181 237.661 52.2447 238.078 52.3813C238.495 52.5108 238.909 52.5756 239.319 52.5756C239.865 52.5756 240.322 52.5036 240.689 52.3598C241.063 52.2159 241.347 52.0181 241.542 51.7663C241.736 51.5145 241.833 51.2267 241.833 50.903Z" fill="white"/>
<path fill-rule="evenodd" clip-rule="evenodd" d="M43.5 14C31.6212 14 22 23.6212 22 35.5C22 45.0137 28.1544 53.0494 36.7006 55.8981C37.7756 56.0863 38.1787 55.4413 38.1787 54.8769C38.1787 54.3663 38.1519 52.6731 38.1519 50.8725C32.75 51.8669 31.3525 49.5556 30.9225 48.3462C30.6806 47.7281 29.6325 45.82 28.7188 45.3094C27.9662 44.9062 26.8912 43.9119 28.6919 43.885C30.385 43.8581 31.5944 45.4437 31.9975 46.0887C33.9325 49.3406 37.0231 48.4269 38.2594 47.8625C38.4475 46.465 39.0119 45.5244 39.63 44.9869C34.8462 44.4494 29.8475 42.595 29.8475 34.3712C29.8475 32.0331 30.6806 30.0981 32.0513 28.5931C31.8363 28.0556 31.0837 25.8519 32.2662 22.8956C32.2662 22.8956 34.0669 22.3313 38.1787 25.0994C39.8987 24.6156 41.7263 24.3737 43.5538 24.3737C45.3813 24.3737 47.2088 24.6156 48.9288 25.0994C53.0406 22.3044 54.8413 22.8956 54.8413 22.8956C56.0238 25.8519 55.2713 28.0556 55.0563 28.5931C56.4269 30.0981 57.26 32.0062 57.26 34.3712C57.26 42.6219 52.2344 44.4494 47.4506 44.9869C48.23 45.6587 48.9019 46.9488 48.9019 48.9644C48.9019 51.84 48.875 54.1513 48.875 54.8769C48.875 55.4413 49.2781 56.1131 50.3531 55.8981C54.6213 54.4572 58.3301 51.7142 60.9576 48.055C63.585 44.3958 64.9988 40.0048 65 35.5C65 23.6212 55.3788 14 43.5 14Z" fill="white"/>
</svg>
