<svg width="352" height="70" viewBox="0 0 352 70" fill="none" xmlns="http://www.w3.org/2000/svg">
<rect width="352" height="70" rx="10" fill="#24243A"/>
<path d="M92.2872 52.3449C90.1092 52.3449 88.2822 51.6078 86.8073 50.1323C85.3325 48.6574 84.5947 46.817 84.5947 44.6111C84.5947 42.4058 85.3325 40.5654 86.8073 39.0899C88.2822 37.6156 90.1092 36.8773 92.2872 36.8773C94.5205 36.8773 96.3329 37.6843 97.7257 39.2967L96.4022 40.5788C95.3957 39.3247 94.0242 38.697 92.2872 38.697C90.6742 38.697 89.3128 39.2419 88.2034 40.3306C87.0935 41.4199 86.5385 42.8467 86.5385 44.6111C86.5385 46.3761 87.0935 47.8029 88.2034 48.8916C89.3128 49.9814 90.6742 50.5252 92.2872 50.5252C94.0655 50.5252 95.5823 49.8087 96.8365 48.3746L98.1599 49.6986C97.4842 50.5118 96.6364 51.1562 95.6164 51.6318C94.5959 52.1069 93.4865 52.3449 92.2872 52.3449Z" fill="white"/>
<path d="M101.759 37.2082V41.8815L101.676 43.2877H101.759C102.034 42.8054 102.469 42.3951 103.062 42.0576C103.654 41.7195 104.288 41.5512 104.964 41.5512C106.218 41.5512 107.177 41.9369 107.838 42.7087C108.5 43.4811 108.831 44.515 108.831 45.811V52.0141H106.929V46.1C106.929 44.2255 106.094 43.2877 104.426 43.2877C103.641 43.2877 103 43.6012 102.503 44.2288C102.007 44.8565 101.759 45.583 101.759 46.4102V52.0141H99.8564V37.2082H101.759Z" fill="white"/>
<path d="M112.966 52.0142H111.063V41.8817H112.883V43.5359H112.966C113.159 42.9849 113.555 42.5294 114.155 42.1712C114.754 41.8129 115.337 41.6335 115.902 41.6335C116.467 41.6335 116.943 41.7162 117.329 41.8817L116.605 43.66C116.357 43.5639 116.019 43.5153 115.592 43.5153C114.902 43.5153 114.293 43.7874 113.762 44.3324C113.231 44.8767 112.966 45.5904 112.966 46.4723V52.0142Z" fill="white"/>
<path d="M120.255 49.6051C120.91 50.2735 121.686 50.6083 122.582 50.6083C123.478 50.6083 124.253 50.2735 124.908 49.6051C125.563 48.9367 125.891 48.0514 125.891 46.9476C125.891 45.8449 125.563 44.9591 124.908 44.2907C124.253 43.6223 123.478 43.2875 122.582 43.2875C121.686 43.2875 120.91 43.6223 120.255 44.2907C119.601 44.9591 119.274 45.8449 119.274 46.9476C119.274 48.0514 119.601 48.9367 120.255 49.6051ZM118.839 43.0913C119.818 42.0646 121.065 41.551 122.582 41.551C124.098 41.551 125.346 42.0646 126.325 43.0913C127.304 44.1185 127.793 45.404 127.793 46.9476C127.793 48.4924 127.304 49.7778 126.325 50.8044C125.346 51.8317 124.098 52.3447 122.582 52.3447C121.065 52.3447 119.818 51.8317 118.839 50.8044C117.86 49.7778 117.371 48.4924 117.371 46.9476C117.371 45.404 117.86 44.1185 118.839 43.0913" fill="white"/>
<path d="M129.322 52.0142V41.8817H131.142V43.2878H131.225C131.514 42.8049 131.959 42.3953 132.559 42.0577C133.158 41.7196 133.754 41.5508 134.348 41.5508C135.919 41.5508 136.987 42.1991 137.552 43.4946C138.38 42.1991 139.559 41.5508 141.088 41.5508C142.288 41.5508 143.191 41.9336 143.797 42.6982C144.404 43.4633 144.707 44.5011 144.707 45.8106V52.0142H142.805V46.1001C142.805 45.0801 142.619 44.3564 142.246 43.9288C141.874 43.5019 141.309 43.2878 140.551 43.2878C139.806 43.2878 139.189 43.6052 138.7 44.239C138.211 44.8734 137.966 45.5971 137.966 46.4103V52.0142H136.064V46.1001C136.064 45.0801 135.877 44.3564 135.505 43.9288C135.134 43.5019 134.568 43.2878 133.81 43.2878C133.065 43.2878 132.448 43.6052 131.959 44.239C131.469 44.8734 131.225 45.5971 131.225 46.4103V52.0142H129.322Z" fill="white"/>
<path d="M154.261 45.7278C154.219 45.1488 153.954 44.5977 153.464 44.0735C152.975 43.5498 152.247 43.2877 151.283 43.2877C150.58 43.2877 149.969 43.5085 149.453 43.9494C148.936 44.3904 148.581 44.9834 148.388 45.7278H154.261ZM151.531 52.345C150.001 52.345 148.756 51.8353 147.798 50.8148C146.84 49.7948 146.361 48.506 146.361 46.9478C146.361 45.473 146.826 44.2043 147.757 43.143C148.687 42.0817 149.877 41.5507 151.324 41.5507C152.827 41.5507 154.03 42.0403 154.932 43.0189C155.835 43.9975 156.287 45.3075 156.287 46.9478L156.266 47.2999H148.264C148.319 48.3199 148.66 49.1264 149.288 49.7188C149.915 50.3118 150.649 50.608 151.49 50.608C152.854 50.608 153.778 50.029 154.261 48.871L155.956 49.574C155.625 50.3598 155.081 51.0182 154.323 51.5491C153.564 52.0795 152.634 52.345 151.531 52.345Z" fill="white"/>
<path d="M179.324 37.2082L175.375 52.0141H173.431L170.247 42.2537H170.163L166.979 52.0141H165.036L160.92 37.2082H162.905L166.028 48.8502H166.11L169.316 39.1933H171.094L174.3 48.8502H174.382L177.339 37.2082H179.324Z" fill="white"/>
<path d="M186.995 45.7278C186.954 45.1488 186.688 44.5978 186.199 44.0735C185.71 43.5499 184.982 43.2878 184.017 43.2878C183.314 43.2878 182.704 43.5085 182.187 43.9495C181.67 44.3904 181.315 44.9834 181.122 45.7278H186.995ZM184.265 52.345C182.735 52.345 181.491 51.8353 180.533 50.8148C179.575 49.7948 179.096 48.506 179.096 46.9479C179.096 45.473 179.561 44.2043 180.491 43.143C181.422 42.0817 182.611 41.5508 184.059 41.5508C185.561 41.5508 186.764 42.0403 187.667 43.0189C188.569 43.9975 189.021 45.3076 189.021 46.9479L189.001 47.3H180.999C181.053 48.3199 181.394 49.1264 182.022 49.7188C182.649 50.3118 183.383 50.608 184.224 50.608C185.589 50.608 186.513 50.029 186.995 48.871L188.691 49.5741C188.36 50.3599 187.815 51.0182 187.057 51.5492C186.299 52.0795 185.368 52.345 184.265 52.345Z" fill="white"/>
<path d="M195.805 50.6082C196.687 50.6082 197.446 50.2734 198.079 49.605C198.714 48.9366 199.031 48.0513 199.031 46.9475C199.031 45.8454 198.714 44.9596 198.079 44.2906C197.446 43.6222 196.687 43.2874 195.805 43.2874C194.908 43.2874 194.147 43.6183 193.52 44.2806C192.892 44.9417 192.579 45.8309 192.579 46.9475C192.579 48.0642 192.892 48.9539 193.52 49.6156C194.147 50.2768 194.908 50.6082 195.805 50.6082ZM196.116 52.3447C195.343 52.3447 194.651 52.1798 194.037 51.8489C193.423 51.5181 192.965 51.1045 192.662 50.6082H192.579V52.0144H190.76V37.2079H192.662V41.8818L192.579 43.2874H192.662C192.965 42.7917 193.423 42.3776 194.037 42.0473C194.651 41.7164 195.343 41.551 196.116 41.551C197.424 41.551 198.556 42.0679 199.506 43.1013C200.457 44.1358 200.934 45.4179 200.934 46.9475C200.934 48.4778 200.457 49.7598 199.506 50.7943C198.556 51.8283 197.424 52.3447 196.116 52.3447Z" fill="white"/>
<path d="M211.105 52.3449C210.03 52.3449 208.979 51.9934 207.951 51.2903C206.925 50.5873 206.252 49.6019 205.936 48.3333L207.673 47.6302C207.88 48.4439 208.303 49.1297 208.945 49.688C209.586 50.2463 210.305 50.5252 211.105 50.5252C211.932 50.5252 212.639 50.3078 213.225 49.8741C213.811 49.4399 214.104 48.8502 214.104 48.1058C214.104 47.2792 213.811 46.6415 213.225 46.1933C212.639 45.7451 211.712 45.3282 210.443 44.942C209.134 44.529 208.141 43.9947 207.466 43.3397C206.79 42.6852 206.453 41.8475 206.453 40.8275C206.453 39.7656 206.873 38.8418 207.714 38.0566C208.555 37.2702 209.65 36.8773 211.002 36.8773C212.257 36.8773 213.277 37.1914 214.062 37.8185C214.848 38.4461 215.358 39.1313 215.592 39.8757L213.855 40.5995C213.731 40.1311 213.425 39.6969 212.935 39.2967C212.446 38.8971 211.816 38.697 211.044 38.697C210.313 38.697 209.689 38.9005 209.172 39.3073C208.655 39.7136 208.396 40.2205 208.396 40.8275C208.396 41.3786 208.634 41.8441 209.11 42.223C209.586 42.6019 210.285 42.9434 211.209 43.2463C211.939 43.4811 212.549 43.7085 213.039 43.9287C213.528 44.1495 214.024 44.4423 214.528 44.8079C215.031 45.1734 215.41 45.6277 215.665 46.1726C215.92 46.7176 216.048 47.348 216.048 48.0645C216.048 48.7815 215.899 49.4225 215.603 49.9876C215.306 50.5532 214.913 51.0008 214.424 51.3322C213.934 51.6625 213.407 51.914 212.842 52.0867C212.277 52.2589 211.698 52.3449 211.105 52.3449Z" fill="white"/>
<path d="M221.901 52.1796C220.84 52.1796 220.029 51.8973 219.471 51.3317C218.913 50.7667 218.634 49.967 218.634 48.933V43.6186H216.855V41.8816H218.634V38.7798H220.536V41.8816H223.018V43.6186H220.536V48.7883C220.536 49.8915 220.991 50.4431 221.901 50.4431C222.245 50.4431 222.535 50.3878 222.77 50.2771L223.431 51.9113C223.018 52.0901 222.507 52.1796 221.901 52.1796Z" fill="white"/>
<path d="M227.039 49.6051C227.694 50.2735 228.469 50.6083 229.365 50.6083C230.261 50.6083 231.036 50.2735 231.691 49.6051C232.346 48.9367 232.674 48.0514 232.674 46.9476C232.674 45.8449 232.346 44.9591 231.691 44.2907C231.036 43.6223 230.261 43.2875 229.365 43.2875C228.469 43.2875 227.694 43.6223 227.039 44.2907C226.384 44.9591 226.057 45.8449 226.057 46.9476C226.057 48.0514 226.384 48.9367 227.039 49.6051ZM225.622 43.0913C226.601 42.0646 227.849 41.551 229.365 41.551C230.882 41.551 232.129 42.0646 233.108 43.0913C234.087 44.1185 234.576 45.404 234.576 46.9476C234.576 48.4924 234.087 49.7778 233.108 50.8044C232.129 51.8317 230.882 52.3447 229.365 52.3447C227.849 52.3447 226.601 51.8317 225.622 50.8044C224.643 49.7778 224.154 48.4924 224.154 46.9476C224.154 45.404 224.643 44.1185 225.622 43.0913" fill="white"/>
<path d="M238.009 52.0142H236.107V41.8817H237.927V43.5359H238.009C238.203 42.9849 238.599 42.5294 239.199 42.1712C239.798 41.8129 240.381 41.6335 240.946 41.6335C241.511 41.6335 241.986 41.7162 242.373 41.8817L241.649 43.66C241.401 43.5639 241.063 43.5153 240.635 43.5153C239.946 43.5153 239.336 43.7874 238.806 44.3324C238.275 44.8767 238.009 45.5904 238.009 46.4723V52.0142Z" fill="white"/>
<path d="M250.313 45.7278C250.272 45.1488 250.006 44.5977 249.517 44.0735C249.028 43.5498 248.3 43.2877 247.336 43.2877C246.633 43.2877 246.022 43.5085 245.505 43.9494C244.989 44.3904 244.633 44.9834 244.441 45.7278H250.313ZM247.584 52.345C246.054 52.345 244.809 51.8353 243.851 50.8148C242.893 49.7948 242.414 48.506 242.414 46.9478C242.414 45.473 242.879 44.2043 243.81 43.143C244.74 42.0817 245.929 41.5507 247.377 41.5507C248.88 41.5507 250.082 42.0403 250.985 43.0189C251.888 43.9975 252.34 45.3075 252.34 46.9478L252.319 47.2999H244.317C244.371 48.3199 244.713 49.1264 245.34 49.7188C245.967 50.3118 246.701 50.608 247.542 50.608C248.907 50.608 249.831 50.029 250.313 48.871L252.009 49.574C251.678 50.3598 251.134 51.0182 250.375 51.5491C249.617 52.0795 248.686 52.345 247.584 52.345Z" fill="white"/>
<path d="M88.871 24.6458H92.5954L90.7645 19.5913H90.7019L88.871 24.6458ZM85.6943 29.0275L89.9195 17.823H91.547L95.7721 29.0275H94.1759L93.0962 25.9916H88.3859L87.2905 29.0275H85.6943Z" fill="white"/>
<path d="M98.3387 29.0274L95.2402 21.3595H96.8051L99.0585 27.306H99.0898L101.375 21.3595H102.908L99.7784 29.0274H98.3387Z" fill="white"/>
<path d="M106.352 27.9631C106.947 27.9631 107.487 27.7418 107.972 27.2986C108.457 26.8554 108.7 26.3307 108.7 25.7254C108.293 25.3917 107.682 25.2252 106.869 25.2252C106.17 25.2252 105.643 25.3761 105.288 25.6784C104.933 25.9814 104.756 26.3357 104.756 26.7425C104.756 27.1181 104.918 27.416 105.241 27.6345C105.564 27.8542 105.935 27.9631 106.352 27.9631ZM106.118 29.2782C105.304 29.2782 104.623 29.0435 104.075 28.574C103.528 28.104 103.254 27.4836 103.254 26.7118C103.254 25.8774 103.577 25.2224 104.224 24.7473C104.871 24.2728 105.669 24.0359 106.618 24.0359C107.463 24.0359 108.157 24.1918 108.7 24.5053V24.2857C108.7 23.7224 108.506 23.2713 108.121 22.9321C107.734 22.5934 107.26 22.4235 106.697 22.4235C106.279 22.4235 105.901 22.523 105.562 22.7208C105.223 22.9198 104.991 23.1903 104.866 23.5346L103.551 22.9712C103.728 22.5124 104.078 22.0871 104.6 21.6958C105.121 21.3046 105.81 21.109 106.665 21.109C107.646 21.109 108.459 21.3963 109.107 21.9697C109.753 22.5437 110.077 23.3524 110.077 24.3952V29.0273H108.7V27.9631H108.637C108.063 28.8395 107.223 29.2782 106.118 29.2782Z" fill="white"/>
<path d="M113.268 29.0271H111.828V21.3593H113.268V29.0271ZM113.268 19.4345C113.069 19.6329 112.83 19.7324 112.548 19.7324C112.266 19.7324 112.026 19.6329 111.828 19.4345C111.63 19.2366 111.53 18.9963 111.53 18.7146C111.53 18.433 111.63 18.1938 111.828 17.9948C112.026 17.7969 112.266 17.6975 112.548 17.6975C112.83 17.6975 113.069 17.7969 113.268 17.9948C113.466 18.1938 113.565 18.433 113.565 18.7146C113.565 18.9963 113.466 19.2366 113.268 19.4345Z" fill="white"/>
<path d="M116.584 29.0271H115.145V17.8227H116.584V29.0271Z" fill="white"/>
<path d="M120.921 27.9631C121.515 27.9631 122.055 27.7418 122.54 27.2986C123.025 26.8554 123.268 26.3307 123.268 25.7254C122.861 25.3917 122.251 25.2252 121.437 25.2252C120.738 25.2252 120.211 25.3761 119.857 25.6784C119.502 25.9814 119.325 26.3357 119.325 26.7425C119.325 27.1181 119.486 27.416 119.81 27.6345C120.133 27.8542 120.503 27.9631 120.921 27.9631ZM120.686 29.2782C119.872 29.2782 119.192 29.0435 118.644 28.574C118.096 28.104 117.822 27.4836 117.822 26.7118C117.822 25.8774 118.145 25.2224 118.792 24.7473C119.439 24.2728 120.237 24.0359 121.187 24.0359C122.032 24.0359 122.725 24.1918 123.268 24.5053V24.2857C123.268 23.7224 123.075 23.2713 122.689 22.9321C122.303 22.5934 121.828 22.4235 121.265 22.4235C120.847 22.4235 120.469 22.523 120.13 22.7208C119.791 22.9198 119.559 23.1903 119.434 23.5346L118.12 22.9712C118.297 22.5124 118.646 22.0871 119.168 21.6958C119.689 21.3046 120.378 21.109 121.234 21.109C122.214 21.109 123.028 21.3963 123.675 21.9697C124.322 22.5437 124.645 23.3524 124.645 24.3952V29.0273H123.268V27.9631H123.205C122.631 28.8395 121.791 29.2782 120.686 29.2782Z" fill="white"/>
<path d="M130.09 27.9631C130.757 27.9631 131.331 27.7105 131.811 27.2047C132.291 26.6984 132.531 26.0283 132.531 25.1933C132.531 24.3589 132.291 23.6888 131.811 23.1825C131.331 22.6767 130.757 22.4235 130.09 22.4235C129.412 22.4235 128.835 22.6739 128.361 23.1752C127.886 23.6754 127.649 24.3483 127.649 25.1933C127.649 26.0389 127.886 26.7118 128.361 27.212C128.835 27.7133 129.412 27.9631 130.09 27.9631ZM130.324 29.2782C129.74 29.2782 129.216 29.1524 128.752 28.9026C128.287 28.6517 127.94 28.3387 127.711 27.9631H127.649V29.0273H126.271V17.8228H127.711V21.36L127.649 22.4235H127.711C127.94 22.0479 128.287 21.735 128.752 21.4846C129.216 21.2342 129.74 21.109 130.324 21.109C131.315 21.109 132.171 21.5008 132.891 22.2827C133.611 23.0651 133.97 24.0359 133.97 25.1933C133.97 26.3513 133.611 27.3221 132.891 28.104C132.171 28.8864 131.315 29.2782 130.324 29.2782Z" fill="white"/>
<path d="M136.646 29.0271H135.207V17.8227H136.646V29.0271Z" fill="white"/>
<path d="M143.861 24.2704C143.829 23.8322 143.628 23.4153 143.258 23.0185C142.888 22.6223 142.337 22.4233 141.607 22.4233C141.075 22.4233 140.613 22.5904 140.222 22.9246C139.831 23.2583 139.562 23.707 139.416 24.2704H143.861ZM141.795 29.278C140.636 29.278 139.695 28.8924 138.97 28.12C138.245 27.3482 137.883 26.3729 137.883 25.1931C137.883 24.077 138.235 23.1174 138.939 22.3143C139.643 21.5112 140.543 21.1094 141.638 21.1094C142.775 21.1094 143.686 21.4799 144.369 22.2204C145.052 22.9609 145.394 23.9524 145.394 25.1931L145.379 25.4597H139.322C139.364 26.2321 139.622 26.8424 140.097 27.29C140.571 27.7388 141.127 27.9629 141.763 27.9629C142.797 27.9629 143.495 27.5248 143.861 26.649L145.144 27.1811C144.893 27.7752 144.481 28.2737 143.908 28.6755C143.334 29.0768 142.629 29.278 141.795 29.278Z" fill="white"/>
<path d="M151.716 29.0271H150.276V21.3593H151.716V29.0271ZM151.716 19.4345C151.518 19.6329 151.278 19.7324 150.996 19.7324C150.715 19.7324 150.474 19.6329 150.276 19.4345C150.078 19.2366 149.979 18.9963 149.979 18.7146C149.979 18.433 150.078 18.1938 150.276 17.9948C150.474 17.7969 150.715 17.6975 150.996 17.6975C151.278 17.6975 151.518 17.7969 151.716 17.9948C151.914 18.1938 152.013 18.433 152.013 18.7146C152.013 18.9963 151.914 19.2366 151.716 19.4345Z" fill="white"/>
<path d="M154.969 21.3597V22.4232H155.031C155.24 22.0589 155.569 21.7481 156.017 21.4921C156.466 21.2367 156.946 21.1093 157.457 21.1093C158.406 21.1093 159.131 21.4011 159.632 21.9856C160.133 22.5697 160.383 23.3521 160.383 24.3324V29.0276H158.943V24.552C158.943 23.1336 158.312 22.4232 157.05 22.4232C156.456 22.4232 155.97 22.6608 155.595 23.1358C155.219 23.6103 155.031 24.1608 155.031 24.7868V29.0276H153.592V21.3597H154.969Z" fill="white"/>
<path d="M168.836 29.1524C168.033 29.1524 167.42 28.9389 166.997 28.5114C166.575 28.0833 166.363 27.478 166.363 26.6956V22.6738H165.018V21.3599H166.363V19.012H167.803V21.3599H169.681V22.6738H167.803V26.586C167.803 27.421 168.148 27.8379 168.836 27.8379C169.097 27.8379 169.315 27.7966 169.493 27.7133L169.994 28.9495C169.681 29.0848 169.295 29.1524 168.836 29.1524Z" fill="white"/>
<path d="M172.574 17.823V21.3596L172.512 22.4232H172.574C172.783 22.0588 173.112 21.7481 173.56 21.4921C174.008 21.2367 174.489 21.1093 175 21.1093C175.949 21.1093 176.674 21.401 177.175 21.9856C177.676 22.5696 177.926 23.3526 177.926 24.3323V29.0275H176.486V24.552C176.486 23.1335 175.855 22.4232 174.593 22.4232C173.998 22.4232 173.513 22.6607 173.138 23.1358C172.762 23.6103 172.574 24.1607 172.574 24.7867V29.0275H171.135V17.823H172.574Z" fill="white"/>
<path d="M185.157 24.2704C185.126 23.8322 184.925 23.4153 184.555 23.0185C184.184 22.6222 183.633 22.4233 182.904 22.4233C182.372 22.4233 181.91 22.5904 181.519 22.9246C181.127 23.2582 180.859 23.707 180.713 24.2704H185.157ZM183.092 29.278C181.933 29.278 180.992 28.8923 180.267 28.12C179.542 27.3481 179.18 26.3729 179.18 25.1931C179.18 24.077 179.532 23.1174 180.235 22.3143C180.94 21.5112 181.839 21.1093 182.935 21.1093C184.072 21.1093 184.983 21.4799 185.666 22.2204C186.349 22.9609 186.691 23.9524 186.691 25.1931L186.675 25.4597H180.619C180.661 26.232 180.919 26.8423 181.394 27.29C181.868 27.7388 182.423 27.9629 183.06 27.9629C184.093 27.9629 184.792 27.5247 185.157 26.649L186.441 27.181C186.19 27.7751 185.778 28.2736 185.204 28.6755C184.63 29.0768 183.926 29.278 183.092 29.278Z" fill="white"/>
<g clip-path="url(#clip0_775_4946)">
<path d="M46.1934 19.5891H32.191C30.6431 19.5891 29.3888 18.3347 29.3888 16.7869C29.3888 15.2419 30.6431 13.9875 32.191 13.9875H46.1934C47.7412 13.9875 48.9955 15.2419 48.9955 16.7869C48.9955 18.3347 47.7412 19.5891 46.1934 19.5891ZM8.38379 8.38324V57.3987C8.38379 59.7079 10.275 61.5991 12.5842 61.5991H65.8001C68.1094 61.5991 70.0006 59.7079 70.0006 57.3987V8.38324H8.38379Z" fill="#EEEEEE"/>
<path d="M39.1937 30.7894C29.8015 30.7894 21.5474 35.6544 16.8125 43.0031V61.5964H29.7849L39.1937 45.2985H62.8984C58.493 36.6872 49.5301 30.7894 39.1937 30.7894Z" fill="#DB4437"/>
<path d="M16.8038 43.0141C14.1346 47.162 12.584 52.099 12.584 57.3987C12.584 58.8274 12.6975 60.2313 12.9163 61.5991H27.6414L16.8038 43.0141Z" fill="#0F9D58"/>
<path d="M65.7999 57.3987C65.7999 53.0432 64.7533 48.9313 62.8981 45.3013H39.1934L48.6021 61.5991H65.4676C65.6864 60.2313 65.7999 58.8274 65.7999 57.3987Z" fill="#FFCD40"/>
<path d="M39.1933 45.3013C32.5119 45.3013 27.0986 50.7173 27.0986 57.3987C27.0986 58.8773 27.3644 60.2922 27.849 61.5991H30.4739C29.8592 60.3282 29.5159 58.9022 29.5159 57.3987C29.5159 52.0519 33.8493 47.7213 39.1933 47.7213C44.5373 47.7213 48.8706 52.0519 48.8706 57.3987C48.8706 58.905 48.5273 60.3282 47.9126 61.5991H50.5375C51.0221 60.2894 51.2879 58.8745 51.2879 57.3987C51.2879 50.7173 45.8719 45.3013 39.1933 45.3013Z" fill="#F1F1F1"/>
<path d="M39.194 47.7213C33.85 47.7213 29.5166 52.0519 29.5166 57.3987C29.5166 58.905 29.8599 60.3282 30.4746 61.5991H47.9133C48.528 60.3282 48.8713 58.9022 48.8713 57.3987C48.8686 52.0519 44.538 47.7213 39.194 47.7213Z" fill="#4285F4"/>
<path opacity="0.05" d="M8.38379 8.38324V34.9926H70.0006V8.38324H8.38379ZM46.1934 19.5891H32.191C30.6431 19.5891 29.3888 18.3347 29.3888 16.7869C29.3888 15.2419 30.6431 13.9875 32.191 13.9875H46.1962C47.744 13.9875 48.9983 15.2419 48.9983 16.7869C48.9955 18.3347 47.7412 19.5891 46.1934 19.5891Z" fill="#212121"/>
<path opacity="0.02" d="M70.0006 34.6409H8.38379V34.9926H70.0006V34.6409Z" fill="#212121"/>
<path opacity="0.05" d="M70.0006 34.9926H8.38379V35.3442H70.0006V34.9926Z" fill="white"/>
<path opacity="0.02" d="M8.38379 8.38324V8.73489H70.0006V8.38324H8.38379ZM46.1934 19.5891H32.191C30.704 19.5891 29.4885 18.4261 29.3999 16.9641C29.3916 17.0223 29.3888 17.0804 29.3888 17.1386C29.3888 18.6864 30.6431 19.9379 32.191 19.9379H46.1934C47.7412 19.9379 48.9955 18.6864 48.9955 17.1386C48.9955 17.0804 48.9928 17.0223 48.9845 16.9641C48.8959 18.4233 47.6831 19.5891 46.1934 19.5891Z" fill="#212121"/>
<path opacity="0.1" d="M65.8001 61.2475H12.5842C10.275 61.2475 8.38379 59.3591 8.38379 57.047V57.3987C8.38379 59.7079 10.275 61.5991 12.5842 61.5991H65.8001C68.1094 61.5991 70.0006 59.7079 70.0006 57.3987V57.047C70.0006 59.3591 68.1094 61.2475 65.8001 61.2475ZM32.191 13.9848H46.1934C47.6803 13.9848 48.8959 15.1477 48.9845 16.6097C48.9872 16.5516 48.9955 16.4934 48.9955 16.4353C48.9955 14.8874 47.7412 13.6331 46.1934 13.6331H32.191C30.6431 13.6331 29.3888 14.8874 29.3888 16.4353C29.3888 16.4934 29.3916 16.5516 29.3999 16.6097C29.4885 15.1477 30.7013 13.9848 32.191 13.9848Z" fill="#231F20"/>
</g>
<defs>
<clipPath id="clip0_775_4946">
<rect width="61.6168" height="53.2159" fill="white" transform="translate(8.38281 8.38324)"/>
</clipPath>
</defs>
</svg>
